<svg width="24" height="24" viewBox="0 0 24 24" fill="none" xmlns="http://www.w3.org/2000/svg">
<path d="M21.1505 10.8613C20.599 9.68919 19.7973 8.63718 18.7954 7.77108L17.9687 7.05486C17.9407 7.0312 17.9069 7.01442 17.8703 7.00598C17.8338 6.99753 17.7956 6.99769 17.7592 7.00643C17.7227 7.01517 17.6891 7.03223 17.6612 7.0561C17.6334 7.07998 17.6121 7.10995 17.5994 7.14338L17.2301 8.14394C17 8.77164 16.5767 9.41275 15.9773 10.0431C15.9375 10.0834 15.892 10.0941 15.8608 10.0968C15.8295 10.0995 15.7812 10.0941 15.7386 10.0565C15.6988 10.0243 15.679 9.97606 15.6818 9.92778C15.7869 8.31293 15.2756 6.49154 14.1562 4.50919C13.2301 2.86216 11.9432 1.57726 10.3352 0.681315L9.16192 0.0294753C9.00851 -0.0563636 8.81249 0.0562999 8.82102 0.225295L8.88351 1.51288C8.92613 2.39273 8.81817 3.17064 8.56249 3.81712C8.24999 4.60845 7.80113 5.34344 7.22727 6.00333C6.8279 6.46193 6.37525 6.87674 5.87784 7.23995C4.67984 8.10951 3.70572 9.22372 3.02841 10.4991C2.35277 11.7857 2.00082 13.2022 2 14.6382C2 15.9043 2.2642 17.1302 2.78693 18.2863C3.29166 19.3995 4.02005 20.4097 4.93182 21.2612C5.85227 22.1196 6.92045 22.7956 8.11079 23.265C9.34374 23.7532 10.6506 24 12 24C13.3494 24 14.6562 23.7532 15.8892 23.2677C17.0766 22.801 18.1564 22.1204 19.0682 21.2639C19.9886 20.4055 20.7102 19.4023 21.213 18.289C21.735 17.136 22.0027 15.8948 22 14.6409C22 13.3318 21.7159 12.0603 21.1505 10.8613Z" fill="black" fill-opacity="0.85"/>
</svg>
