<svg width="24" height="24" viewBox="0 0 24 24" fill="none" xmlns="http://www.w3.org/2000/svg">
<path d="M22.953 14.7273H0.261219C0.117744 14.7273 0.000356306 14.85 0.000356306 15V17.0455C0.000356306 17.1955 0.117744 17.3182 0.261219 17.3182H19.9955L15.2902 23.5568C15.1565 23.7341 15.2771 24 15.4956 24H17.8597C18.0194 24 18.1694 23.925 18.2705 23.792L23.7747 16.4932C24.3128 15.7773 23.8269 14.7273 22.953 14.7273ZM23.7389 6.68182H4.0046L8.70991 0.443182C8.8436 0.265909 8.72295 0 8.50448 0H6.14041C5.98063 0 5.83064 0.0750002 5.72955 0.207955L0.22535 7.50682C-0.312679 8.22273 0.173178 9.27273 1.04381 9.27273H23.7389C23.8823 9.27273 23.9997 9.15 23.9997 9V6.95455C23.9997 6.80455 23.8823 6.68182 23.7389 6.68182Z" fill="black"/>
</svg>
