<svg width="24" height="24" viewBox="0 0 24 24" fill="none" xmlns="http://www.w3.org/2000/svg">
<path d="M23.9522 15.6031L12.8181 0.4125C12.4139 -0.1375 11.5866 -0.1375 11.1855 0.4125L0.0481944 15.6031C0.0207864 15.6405 0.00436763 15.6846 0.000757599 15.7307C-0.00285243 15.7767 0.00648747 15.8228 0.0277421 15.8639C0.0489968 15.905 0.0813358 15.9395 0.121175 15.9635C0.161013 15.9875 0.206796 16.0001 0.253447 16H2.62175C2.78279 16 2.93436 15.9219 3.02909 15.7937L12.0002 3.55625L20.9713 15.7937C21.0661 15.9219 21.2176 16 21.3787 16H23.747C23.9522 16 24.0722 15.7687 23.9522 15.6031Z" fill="black" fill-opacity="0.85"/>
</svg>
